Coordinates
version=1
nRows=14
nColumns=38
inDegrees=no

Units are S.I. units (second, meters, Newtons, ...)
If the header above contains a line with 'inDegrees', this indicates whether rotational values are in degrees (yes) or radians (no).

endheader
time	pelvis_tilt	pelvis_list	pelvis_rotation	pelvis_tx	pelvis_ty	pelvis_tz	hip_flexion_r	hip_adduction_r	hip_rotation_r	knee_angle_r	ankle_angle_r	subtalar_angle_r	mtp_angle_r	hip_flexion_l	hip_adduction_l	hip_rotation_l	knee_angle_l	ankle_angle_l	subtalar_angle_l	mtp_angle_l	lumbar_extension	lumbar_bending	lumbar_rotation	arm_flex_r	arm_add_r	arm_rot_r	elbow_flex_r	pro_sup_r	wrist_flex_r	wrist_dev_r	arm_flex_l	arm_add_l	arm_rot_l	elbow_flex_l	pro_sup_l	wrist_flex_l	wrist_dev_l
0	-2.79673	1.29028	1.2126	0.678484	1.58053	0.958123	0.497867	0.0786443	-0.230284	0.34439	0.0131018	0	0	0.0291304	-0.126965	-0.159158	0.388393	0.0897357	0	0	-0.0502084	0.139776	0.0943038	-0.219781	-0.371441	0.189893	1.29671	1.5708	0	0	-0.0559428	-0.449735	0.610943	1.20581	1.14349	0	0
0.01	-2.79386	1.28983	1.21251	0.678119	1.577	0.958992	0.489154	0.0795931	-0.232359	0.334561	0.0128085	0	0	0.0457706	-0.129757	-0.154708	0.423852	0.0842536	0	0	-0.0510463	0.147573	0.087793	-0.220516	-0.384982	0.218018	1.3027	1.5534	0	0	-0.0865468	-0.419636	0.532274	1.18706	1.23322	0	0
0.02	-2.7875	1.28952	1.20847	0.677375	1.57357	0.959491	0.480529	0.0820837	-0.234985	0.326064	0.0141375	0	0	0.0646144	-0.135861	-0.155725	0.465384	0.0825196	0	0	-0.0525135	0.150863	0.0893599	-0.230439	-0.382245	0.214172	1.3046	1.55659	0	0	-0.0985839	-0.404397	0.498579	1.17549	1.26191	0	0
0.03	-2.7708	1.30261	1.19357	0.676207	1.57092	0.960323	0.459929	0.0826915	-0.237914	0.321509	0.0201151	0	0	0.0682127	-0.139667	-0.156935	0.503844	0.083622	0	0	-0.0692452	0.143515	0.0976803	-0.239072	-0.377966	0.208465	1.30396	1.55799	0	0	-0.0740457	-0.394728	0.512465	1.13988	1.28876	0	0
0.04	-2.77096	1.29639	1.19409	0.67584	1.56711	0.961039	0.455832	0.0861234	-0.238416	0.309126	0.0168273	0	0	0.0898983	-0.143986	-0.156338	0.536071	0.0814213	0	0	-0.0640602	0.155016	0.0944183	-0.246309	-0.376705	0.207046	1.30643	1.56555	0	0	-0.116469	-0.379932	0.443012	1.15417	1.32203	0	0
0.05	-2.76885	1.30078	1.19115	0.674857	1.56406	0.961767	0.444298	0.0868255	-0.238193	0.302585	0.018933	0	0	0.100912	-0.146117	-0.159753	0.567491	0.0845821	0	0	-0.0710628	0.153621	0.096932	-0.251753	-0.373372	0.206201	1.30536	1.56667	0	0	-0.121018	-0.379283	0.438415	1.14948	1.32282	0	0
0.06	-2.76801	1.30662	1.18842	0.673864	1.56121	0.962631	0.432257	0.0868086	-0.237313	0.297196	0.0210657	0	0	0.109918	-0.147078	-0.164279	0.595912	0.0893544	0	0	-0.0788083	0.150545	0.103114	-0.258388	-0.369631	0.203533	1.3036	1.56687	0	0	-0.121815	-0.379393	0.439343	1.14474	1.32057	0	0
0.07	-2.75252	1.32586	1.17079	0.672276	1.55919	0.963835	0.40728	0.0860227	-0.235194	0.293857	0.0269261	0	0	0.105001	-0.148137	-0.173455	0.623987	0.0989709	0	0	-0.0980383	0.13502	0.114165	-0.260254	-0.364594	0.205146	1.2938	1.5588	0	0	-0.0757795	-0.436998	0.586095	1.1591	1.18096	0	0
0.08	-2.75794	1.33278	1.173	0.671163	1.55658	0.964869	0.395296	0.0846403	-0.232372	0.288731	0.028383	0	0	0.112096	-0.147278	-0.180989	0.645883	0.10593	0	0	-0.105399	0.128791	0.122515	-0.266809	-0.358991	0.20005	1.29021	1.56029	0	0	-0.0708932	-0.452631	0.613602	1.16729	1.17932	0	0
0.09	-2.75612	1.32008	1.16611	0.670685	1.55323	0.964672	0.399963	0.0929675	-0.228332	0.280245	0.0244398	0	0	0.141182	-0.161711	-0.203884	0.677418	0.119048	0	0	-0.0998383	0.146588	0.130194	-0.285383	-0.354731	0.178111	1.30685	1.5708	0	0	-0.122973	-0.377259	0.442496	1.13403	1.3335	0	0
0.1	-2.76365	1.33259	1.1706	0.669246	1.5511	0.965885	0.383727	0.0894461	-0.223865	0.276155	0.0270323	0	0	0.141942	-0.158327	-0.212	0.692533	0.128529	0	0	-0.110962	0.130911	0.140722	-0.289168	-0.346647	0.173462	1.29503	1.5708	0	0	-0.0904266	-0.45573	0.598174	1.18071	1.20686	0	0
0.11	-2.77736	1.34083	1.18126	0.668122	1.54895	0.966974	0.372449	0.0857768	-0.220055	0.272425	0.0283439	0	0	0.147157	-0.15443	-0.21901	0.704413	0.136167	0	0	-0.121304	0.121121	0.139089	-0.28577	-0.34304	0.178621	1.28816	1.5708	0	0	-0.0949776	-0.441995	0.573533	1.16231	1.2221	0	0
0.12	-2.80893	1.33792	1.20832	0.667478	1.54625	0.968046	0.371696	0.0826042	-0.212884	0.265022	0.0242528	0	0	0.162553	-0.148921	-0.224996	0.709063	0.139238	0	0	-0.1175	0.120218	0.128192	-0.27756	-0.342455	0.192166	1.27914	1.5708	0	0	-0.144001	-0.393991	0.441516	1.14338	1.36039	0	0
0.13	-2.82596	1.3458	1.22217	0.666437	1.54444	0.969112	0.361446	0.0785195	-0.208461	0.261751	0.0252065	0	0	0.167718	-0.144244	-0.232177	0.714608	0.14455	0	0	-0.127151	0.113444	0.141241	-0.289173	-0.334507	0.175854	1.28229	1.5708	0	0	-0.134591	-0.373486	0.420088	1.11471	1.37678	0	0
